# MagicaVoxel @ Ephtracy

# group
o 

# material
mtllib Door.mtl
usemtl palette

# normals
vn -1 0 0
vn 1 0 0
vn 0 0 1
vn 0 0 -1
vn 0 -1 0
vn 0 1 0

# texcoords
vt 0.0683594 0.5
vt 0.994141 0.5

# verts
v 1.4 2.6 -0.4
v 1.4 2.6 -0.5
v 1.4 3.3 -0.4
v 1.4 3.3 -0.5
v 1.5 3.3 -0.4
v 1.5 3.3 -0.5
v 1.5 3.4 -0.4
v 1.5 3.4 -0.5
v 1.6 3.4 -0.4
v 1.6 3.4 -0.5
v 1.6 3.5 -0.4
v 1.6 3.5 -0.5
v 2.1 3.4 -0.4
v 2.1 3.4 -0.5
v 2.1 3.5 -0.4
v 2.1 3.5 -0.5
v 2.2 3.3 -0.4
v 2.2 3.3 -0.5
v 2.2 3.4 -0.4
v 2.2 3.4 -0.5
v 2.3 2.6 -0.4
v 2.3 2.6 -0.5
v 2.3 3.3 -0.4
v 2.3 3.3 -0.5
v 1.4 2.6 -0.4
v 1.4 3.3 -0.4
v 1.5 3.3 -0.4
v 1.5 3.4 -0.4
v 1.6 3.4 -0.4
v 1.6 3.5 -0.4
v 2.1 2.9 -0.4
v 2.1 3 -0.4
v 2.1 3.4 -0.4
v 2.1 3.5 -0.4
v 2.2 2.9 -0.4
v 2.2 3 -0.4
v 2.2 3.3 -0.4
v 2.2 3.4 -0.4
v 2.3 2.6 -0.4
v 2.3 3.3 -0.4
v 1.4 2.6 -0.5
v 1.4 3.3 -0.5
v 1.5 3.3 -0.5
v 1.5 3.4 -0.5
v 1.6 3.4 -0.5
v 1.6 3.5 -0.5
v 2.1 2.9 -0.5
v 2.1 3 -0.5
v 2.1 3.4 -0.5
v 2.1 3.5 -0.5
v 2.2 2.9 -0.5
v 2.2 3 -0.5
v 2.2 3.3 -0.5
v 2.2 3.4 -0.5
v 2.3 2.6 -0.5
v 2.3 3.3 -0.5
v 1.4 2.6 -0.4
v 2.3 2.6 -0.4
v 1.4 2.6 -0.5
v 2.3 2.6 -0.5
v 1.4 3.3 -0.4
v 1.5 3.3 -0.4
v 2.2 3.3 -0.4
v 2.3 3.3 -0.4
v 1.4 3.3 -0.5
v 1.5 3.3 -0.5
v 2.2 3.3 -0.5
v 2.3 3.3 -0.5
v 1.5 3.4 -0.4
v 1.6 3.4 -0.4
v 2.1 3.4 -0.4
v 2.2 3.4 -0.4
v 1.5 3.4 -0.5
v 1.6 3.4 -0.5
v 2.1 3.4 -0.5
v 2.2 3.4 -0.5
v 1.6 3.5 -0.4
v 2.1 3.5 -0.4
v 1.6 3.5 -0.5
v 2.1 3.5 -0.5

# faces
f 3/2/1 2/2/1 1/2/1
f 4/2/1 2/2/1 3/2/1
f 7/2/1 6/2/1 5/2/1
f 8/2/1 6/2/1 7/2/1
f 11/2/1 10/2/1 9/2/1
f 12/2/1 10/2/1 11/2/1
f 13/2/2 14/2/2 15/2/2
f 15/2/2 14/2/2 16/2/2
f 17/2/2 18/2/2 19/2/2
f 19/2/2 18/2/2 20/2/2
f 21/2/2 22/2/2 23/2/2
f 23/2/2 22/2/2 24/2/2
f 27/2/3 26/2/3 25/2/3
f 29/2/3 28/2/3 27/2/3
f 31/2/3 27/2/3 25/2/3
f 31/2/3 30/2/3 29/2/3
f 31/2/3 29/2/3 27/2/3
f 32/2/3 30/2/3 31/2/3
f 33/2/3 30/2/3 32/2/3
f 34/2/3 30/2/3 33/2/3
f 35/2/3 31/2/3 25/2/3
f 35/1/3 32/1/3 31/1/3
f 36/2/3 33/2/3 32/2/3
f 36/1/3 32/1/3 35/1/3
f 37/2/3 33/2/3 36/2/3
f 38/2/3 33/2/3 37/2/3
f 39/2/3 35/2/3 25/2/3
f 39/2/3 36/2/3 35/2/3
f 39/2/3 37/2/3 36/2/3
f 40/2/3 37/2/3 39/2/3
f 41/2/4 42/2/4 43/2/4
f 43/2/4 44/2/4 45/2/4
f 41/2/4 43/2/4 47/2/4
f 45/2/4 46/2/4 47/2/4
f 43/2/4 45/2/4 47/2/4
f 47/2/4 46/2/4 48/2/4
f 48/2/4 46/2/4 49/2/4
f 49/2/4 46/2/4 50/2/4
f 41/2/4 47/2/4 51/2/4
f 47/1/4 48/1/4 51/1/4
f 48/2/4 49/2/4 52/2/4
f 51/1/4 48/1/4 52/1/4
f 52/2/4 49/2/4 53/2/4
f 53/2/4 49/2/4 54/2/4
f 41/2/4 51/2/4 55/2/4
f 51/2/4 52/2/4 55/2/4
f 52/2/4 53/2/4 55/2/4
f 55/2/4 53/2/4 56/2/4
f 59/2/5 58/2/5 57/2/5
f 60/2/5 58/2/5 59/2/5
f 61/2/6 62/2/6 65/2/6
f 65/2/6 62/2/6 66/2/6
f 63/2/6 64/2/6 67/2/6
f 67/2/6 64/2/6 68/2/6
f 69/2/6 70/2/6 73/2/6
f 73/2/6 70/2/6 74/2/6
f 71/2/6 72/2/6 75/2/6
f 75/2/6 72/2/6 76/2/6
f 77/2/6 78/2/6 79/2/6
f 79/2/6 78/2/6 80/2/6
